<mxfile host="app.diagrams.net" modified="2021-11-02T12:10:06.389Z" agent="5.0 (Windows NT 6.1; Win64; x64) AppleWebKit/537.36 (KHTML, like Gecko) Chrome/95.0.4638.69 Safari/537.36" etag="e5Ws5wClk2AafTiuzIKO" version="15.6.5" type="github">
  <diagram id="UAMUFrmTR1jpcYVn8VOf" name="Page-1">
    <mxGraphModel dx="1038" dy="548" grid="1" gridSize="10" guides="1" tooltips="1" connect="1" arrows="1" fold="1" page="1" pageScale="1" pageWidth="827" pageHeight="1169" math="0" shadow="0">
      <root>
        <mxCell id="0" />
        <mxCell id="1" parent="0" />
        <mxCell id="FjFPbCrgzpZnx3eZtKIg-1" value="считываем изменение скрола" style="rounded=0;whiteSpace=wrap;html=1;fillColor=default;strokeColor=default;fontColor=default;" vertex="1" parent="1">
          <mxGeometry x="210" y="60" width="120" height="60" as="geometry" />
        </mxCell>
        <mxCell id="FjFPbCrgzpZnx3eZtKIg-2" value="считываем изменение размеров окна" style="rounded=0;whiteSpace=wrap;html=1;fontColor=default;strokeColor=default;fillColor=default;" vertex="1" parent="1">
          <mxGeometry x="480" y="60" width="120" height="60" as="geometry" />
        </mxCell>
        <mxCell id="FjFPbCrgzpZnx3eZtKIg-3" value="фукнция расчитывает какой сейчас элемент является видимым" style="rounded=0;whiteSpace=wrap;html=1;fontColor=default;strokeColor=default;fillColor=default;" vertex="1" parent="1">
          <mxGeometry x="340" y="210" width="120" height="90" as="geometry" />
        </mxCell>
        <mxCell id="FjFPbCrgzpZnx3eZtKIg-5" value="" style="endArrow=classic;html=1;rounded=0;labelBackgroundColor=default;fontColor=default;strokeColor=default;exitX=0.5;exitY=1;exitDx=0;exitDy=0;" edge="1" parent="1" source="FjFPbCrgzpZnx3eZtKIg-1">
          <mxGeometry width="50" height="50" relative="1" as="geometry">
            <mxPoint x="350" y="260" as="sourcePoint" />
            <mxPoint x="400" y="210" as="targetPoint" />
          </mxGeometry>
        </mxCell>
        <mxCell id="FjFPbCrgzpZnx3eZtKIg-8" value="" style="endArrow=classic;html=1;rounded=0;labelBackgroundColor=default;fontColor=default;strokeColor=default;exitX=0.5;exitY=1;exitDx=0;exitDy=0;entryX=0.5;entryY=0;entryDx=0;entryDy=0;" edge="1" parent="1" source="FjFPbCrgzpZnx3eZtKIg-3">
          <mxGeometry relative="1" as="geometry">
            <mxPoint x="360" y="230" as="sourcePoint" />
            <mxPoint x="400" y="390" as="targetPoint" />
          </mxGeometry>
        </mxCell>
        <mxCell id="FjFPbCrgzpZnx3eZtKIg-9" value="возвращает айди элемента который сейчас видимый" style="edgeLabel;resizable=0;html=1;align=center;verticalAlign=middle;fontColor=default;strokeColor=default;fillColor=default;labelBackgroundColor=default;" connectable="0" vertex="1" parent="FjFPbCrgzpZnx3eZtKIg-8">
          <mxGeometry relative="1" as="geometry" />
        </mxCell>
        <mxCell id="FjFPbCrgzpZnx3eZtKIg-12" value="" style="endArrow=classic;html=1;rounded=0;labelBackgroundColor=default;fontColor=default;strokeColor=default;exitX=0.5;exitY=1;exitDx=0;exitDy=0;" edge="1" parent="1" source="FjFPbCrgzpZnx3eZtKIg-2">
          <mxGeometry width="50" height="50" relative="1" as="geometry">
            <mxPoint x="280" y="130" as="sourcePoint" />
            <mxPoint x="400" y="210" as="targetPoint" />
          </mxGeometry>
        </mxCell>
        <mxCell id="FjFPbCrgzpZnx3eZtKIg-15" value="Функция, проверяет есть ли среди кнопок та котому можно подсветить" style="rounded=0;whiteSpace=wrap;html=1;fontColor=default;strokeColor=default;fillColor=default;" vertex="1" parent="1">
          <mxGeometry x="340" y="390" width="120" height="110" as="geometry" />
        </mxCell>
        <mxCell id="FjFPbCrgzpZnx3eZtKIg-16" value="" style="endArrow=classic;html=1;rounded=0;labelBackgroundColor=default;fontColor=default;strokeColor=default;exitX=0.5;exitY=1;exitDx=0;exitDy=0;" edge="1" parent="1" source="FjFPbCrgzpZnx3eZtKIg-15">
          <mxGeometry width="50" height="50" relative="1" as="geometry">
            <mxPoint x="390" y="530" as="sourcePoint" />
            <mxPoint x="400" y="590" as="targetPoint" />
          </mxGeometry>
        </mxCell>
        <mxCell id="FjFPbCrgzpZnx3eZtKIg-17" value="фунукция которая подсвечивает элемент и гасит все остальные" style="rounded=0;whiteSpace=wrap;html=1;fontColor=default;strokeColor=default;fillColor=default;" vertex="1" parent="1">
          <mxGeometry x="340" y="590" width="120" height="60" as="geometry" />
        </mxCell>
      </root>
    </mxGraphModel>
  </diagram>
</mxfile>
